<svg height="463pt" viewBox="0 -9 463.448 463" width="463pt" xmlns="http://www.w3.org/2000/svg"><path d="m202.878906 271.128906c10.425782 0 20.210938 4.054688 27.578125 11.421875l1.261719 1.265625 1.265625-1.265625c7.367187-7.367187 17.160156-11.421875 27.574219-11.421875 2.027344 0 4.015625.183594 5.96875.480469l1.480468-2.960937c2.433594-4.847657 3.710938-10.273438 3.710938-15.695313 0-7.367187-2.253906-14.425781-6.535156-20.417969l-27.320313-38.246094c-2.832031-3.953124-9.464843-3.953124-12.269531 0l-27.328125 38.246094c-4.289063 5.992188-6.546875 13.050782-6.546875 20.417969 0 5.421875 1.28125 10.847656 3.714844 15.703125l1.476562 2.960938c1.953125-.304688 3.9375-.488282 5.96875-.488282zm0 0"/><path d="m182.304688 299.839844c-4.304688 8.625-6.585938 18.28125-6.585938 27.902344 0 4.074218 3.3125 7.386718 7.386719 7.386718h97.230469c4.070312 0 7.382812-3.3125 7.382812-7.386718 0-9.621094-2.277344-19.277344-6.582031-27.910157-3.921875-7.832031-11.808594-12.703125-20.570313-12.703125-6.152344 0-11.917968 2.390625-16.261718 6.734375l-12.585938 12.578125-12.574219-12.578125c-4.34375-4.34375-10.121093-6.734375-16.265625-6.734375-8.765625 0-16.65625 4.871094-20.574218 12.710938zm73.414062 3.289062h16v16h-16zm-64 0h16v16h-16zm0 0"/><path d="m79.71875 127.128906c0-17.648437 14.351562-32 32-32 13.769531 0 25.425781 8.773438 29.929688 20.992188 3.96875-3.9375 8.351562-7.378906 13.070312-10.273438-7.992188-16.046875-24.671875-26.71875-43.007812-26.71875-26.472657 0-48 21.527344-48 48 0 21.765625 14.9375 40.574219 35.496093 46.160156.777344-1.210937 1.394531-2.488281 2.25-3.65625l7.824219-10.753906c-16.488281-1.261718-29.5625-14.933594-29.5625-31.75zm0 0"/><path d="m127.71875 127.128906c0 8.835938-7.164062 16-16 16s-16-7.164062-16-16c0-8.835937 7.164062-16 16-16s16 7.164063 16 16zm0 0"/><path d="m306.742188 276.265625-19.925782-14.242187c-.863281 4.777343-2.328125 9.449218-4.496094 13.785156l-.734374 1.472656c5.796874 3.710938 10.628906 8.949219 13.855468 15.40625 5.421875 10.839844 8.277344 22.96875 8.277344 35.054688 0 12.890624-10.496094 23.386718-23.382812 23.386718h-97.230469c-12.890625 0-23.386719-10.496094-23.386719-23.386718 0-12.09375 2.855469-24.214844 8.273438-35.054688 3.230468-6.457031 8.0625-11.695312 13.855468-15.40625l-.734375-1.472656c-2.167969-4.335938-3.625-9.007813-4.496093-13.785156l-19.929688 14.242187c-13.128906 9.382813-20.96875 24.621094-20.96875 40.765625 0 27.625 22.480469 50.105469 50.105469 50.105469h91.800781c27.621094 0 50.101562-22.480469 50.101562-50.105469-.007812-16.144531-7.847656-31.382812-20.984374-40.765625zm0 0"/><path d="m367.71875 127.128906c0 8.835938-7.164062 16-16 16s-16-7.164062-16-16c0-8.835937 7.164062-16 16-16s16 7.164063 16 16zm0 0"/><path d="m316.367188 134.121094c-10.472657-14.402344-27.34375-22.992188-45.152344-22.992188h-79c-17.808594 0-34.679688 8.589844-45.152344 22.992188l-32.671875 44.917968c-6.976563 9.617188-10.671875 20.976563-10.671875 32.847657 0 6.527343 1.136719 12.953125 3.359375 19.082031l20.179687 55.488281c4.742188-9.089843 11.582032-17.097656 20.140626-23.210937l29.625-21.15625c1.457031-6.738282 4.136718-13.144532 8.222656-18.851563l27.320312-38.246093c4.402344-6.167969 11.5625-9.855469 19.160156-9.855469 7.601563 0 14.761719 3.6875 19.167969 9.855469l27.3125 38.246093c4.082031 5.707031 6.761719 12.113281 8.226563 18.851563l29.621094 21.15625c8.5625 6.113281 15.394531 14.121094 20.144531 23.210937l20.175781-55.488281c2.226562-6.128906 3.359375-12.542969 3.359375-19.082031 0-11.871094-3.695313-23.230469-10.679687-32.839844zm-134.992188 59.351562c-3.621094 3.625-8.535156 5.65625-13.65625 5.65625-5.117188 0-10.03125-2.03125-13.65625-5.65625l-10.34375-10.34375 10.34375-10.34375c3.625-3.625 8.539062-5.65625 13.65625-5.65625 5.121094 0 10.035156 2.03125 13.65625 5.65625l10.34375 10.34375zm128 0c-3.621094 3.625-8.535156 5.65625-13.65625 5.65625-5.117188 0-10.03125-2.03125-13.65625-5.65625l-10.34375-10.34375 10.34375-10.34375c3.625-3.625 8.539062-5.65625 13.65625-5.65625 5.121094 0 10.035156 2.03125 13.65625 5.65625l10.34375 10.34375zm0 0"/><path d="m351.71875 79.128906c-18.335938 0-35.007812 10.671875-43.007812 26.71875 4.730468 2.894532 9.105468 6.335938 13.074218 10.273438 4.511719-12.21875 16.167969-20.992188 29.925782-20.992188 17.648437 0 32 14.351563 32 32 0 16.816406-13.070313 30.488282-29.558594 31.75l7.824218 10.753906c.847657 1.167969 1.472657 2.445313 2.246094 3.65625 20.5625-5.578124 35.496094-24.394531 35.496094-46.160156 0-26.464844-21.527344-48-48-48zm0 0"/><path d="m425.128906 87.664062-10.640625-15.953124 14.113281-28.222657c-23.136718-8.191406-47.296874-12.351562-71.953124-12.351562h-23.167969l7.734375-30.90625-22.269532 2.226562c-29.191406 2.910157-57.929687 12.4375-83.097656 27.535157l-4.632812 2.761718-4.292969-3.226562c-24.507813-14.648438-53.234375-24.167969-82.417969-27.078125l-22.273437-2.226563 7.738281 30.90625h-23.167969c-24.65625 0-48.824219 4.160156-71.953125 12.351563l14.113282 28.222656-10.640626 15.953125c-23.167968 34.769531-36.320312 74.75-38.320312 116.28125l23.71875-7.90625v24.023438c0 23.5625 3.792969 46.671874 11.289062 68.867187 7.921876-6.347656 17.695313-9.792969 28-9.792969 6.9375 0 13.878907 1.640625 20.089844 4.742188l13.941406 6.96875-7.382812 29.511718c-1.28125 5.167969-1.9375 10.464844-1.9375 15.753907 0 28.839843 19.371094 54.519531 47.105469 62.445312l9.847656 2.816407c31.679687 9.058593 60.929687 23.722656 87.046875 43.617187 26.128906-19.894531 55.378906-34.558594 87.050781-43.617187l9.847657-2.816407c27.734374-7.917969 47.101562-33.597656 47.101562-62.445312 0-5.289063-.65625-10.585938-1.941406-15.753907l-7.378906-29.511718 13.953124-6.96875c15.402344-7.710938 34.824219-5.558594 48.082032 5.050781 7.496094-22.195313 11.285156-45.304687 11.285156-68.867187v-24.023438l23.730469 7.914062c-2-41.539062-15.152344-81.519531-38.320313-116.28125zm-53.617187 100.304688c2.703125 7.625 4.207031 15.65625 4.207031 23.917969 0 8.410156-1.453125 16.671875-4.328125 24.546875l-27.902344 76.734375c.070313 1.289062.230469 2.566406.230469 3.863281 0 36.449219-29.65625 66.105469-66.101562 66.105469h-91.792969c-36.449219-.007813-66.105469-29.664063-66.105469-66.105469 0-1.296875.160156-2.566406.234375-3.855469l-27.90625-76.734375c-2.871094-7.882812-4.328125-16.144531-4.328125-24.554687 0-8.261719 1.503906-16.292969 4.210938-23.917969-25.824219-8.449219-44.210938-32.914062-44.210938-60.839844 0-35.289062 28.714844-64 64-64 24.546875 0 46.890625 14.34375 57.488281 35.902344 7.34375-2.496094 15.089844-3.902344 23.007813-3.902344h79c7.921875 0 15.671875 1.40625 23.007812 3.902344 10.601563-21.558594 32.945313-35.902344 57.488282-35.902344 35.289062 0 64 28.710938 64 64 .007812 27.925782-18.375 52.390625-44.199219 60.839844zm0 0"/></svg>